<svg width="20" height="32" xmlns="http://www.w3.org/2000/svg" xmlns:xlink="http://www.w3.org/1999/xlink">
  <defs>
    <filter x="-750%" y="-468.8%" width="1600%" height="1037.5%" filterUnits="objectBoundingBox" id="a">
      <feOffset in="SourceAlpha" result="shadowOffsetOuter1"/>
      <feGaussianBlur stdDeviation="50" in="shadowOffsetOuter1" result="shadowBlurOuter1"/>
      <feColorMatrix values="0 0 0 0 0.306 0 0 0 0 0.89 0 0 0 0 0.918 0 0 0 1 0" in="shadowBlurOuter1"/>
    </filter>
    <path d="M17.8391794 29.1530257V7.66536245c0-.30625311-.2599851-.55488368-.5805962-.55488368h-2.7869364c-.3206111 0-.5805962.24863057-.5805962.55488368v5.71992605c0 .3062531-.2599851.5548837-.5805963.5548837H6.58059625C6.26035706 13.9401722 6 13.6915416 6 13.3852885V6.91463076c-.58246086-.20596593-1-.76171667-1-1.41483421C5 4.67136851 5.6717754 4 6.49979655 4 7.32863149 4 8 4.67136851 8 5.49979655c0 .59113373-.34183997 1.10250479-.83880751 1.34695728V12.274454c0 .3069645.25998513.5555951.58059625.5555951h4.40747306c.3206112 0 .5809682-.2486306.5809682-.5555951V6.55523938C12.73023 6.24863058 12.9898432 6 13.3104543 6h5.1089495C18.7403868 6 19 6.24863058 19 6.55523938V29.0853489c.5826453.2059309 1 .7616128 1 1.4146511 0 .8283157-.6714596 1.5-1.5 1.5s-1.5-.6716843-1.5-1.5c0-.5912145.3420726-1.1026338.8391794-1.3469743zm-5-5.0000559v-5.3311121c0-.3070436-.2599851-.5556706-.5809681-.5556706H7.85073816c-.32061113 0-.58022431.248627-.58022431.5556706v6.622097c0 .3066874-.25998512.5560453-.58059625.5560453H1.58059625C1.25998512 26 1 25.7506421 1 25.4439547V2.91461208c-.58254794-.20596956-1-.7616357-1-1.41440863C0 .67136851.6716843 0 1.5 0S3 .6713685 3 1.50020345c0 .59081791-.34197128 1.10208719-.83880751 1.34652833V24.3319012c0 .3070436.25998513.5556706.58059625.5556706h2.78693637c.32061112 0 .58059625-.248627.58059625-.5556706v-6.6220971c0-.3066874.25998512-.5556705.58059624-.5556705h6.7294862c.320983 0 .5805962.2489831.5805962.5556705v6.3756241c.5825561.2059942 1 .7616173 1 1.4145718 0 .8283157-.6717754 1.5-1.5002034 1.5C12.6713685 27 12 26.3283157 12 25.5c0-.5912597.3420784-1.1027118.8391794-1.3470302z" id="b"/>
  </defs>
  <g fill="none" fill-rule="evenodd">
    <use fill="#000" filter="url(#a)" xlink:href="#b"/>
    <use fill="#4EE3EA" xlink:href="#b"/>
  </g>
</svg>
