<svg width="26" height="26" xmlns="http://www.w3.org/2000/svg">
  <g fill="none" fill-rule="evenodd">
    <path d="M5.90909091 10.66V7.15C5.90909091 3.27296106 9.08379905.13 13 .13c3.916201 0 7.0909091 3.14296106 7.0909091 7.02v3.51h1.1818182c1.9581004 0 3.5454545 1.5714805 3.5454545 3.51v8.19c0 1.9385195-1.5873541 3.51-3.5454545 3.51H4.72727273c-1.95810048 0-3.54545455-1.5714805-3.54545455-3.51v-8.19c0-1.9385195 1.58735407-3.51 3.54545455-3.51h1.18181818zm2.36363636 0h9.45454543V7.15c0-2.58469263-2.1164721-4.68-4.7272727-4.68-2.61080064 0-4.72727273 2.09530737-4.72727273 4.68v3.51zM4.72727273 13c-.65270016 0-1.18181818.5238268-1.18181818 1.17v8.19c0 .6461732.52911802 1.17 1.18181818 1.17H21.2727273c.6527001 0 1.1818182-.5238268 1.1818182-1.17v-8.19c0-.6461732-.5291181-1.17-1.1818182-1.17H4.72727273z" fill="#E7E7E9"/>
    <path d="M6.630626 22.4891405h12.7073845c.503329 0 .9113578-.4203436.9113578-.9388637 0-.5185201-.4080288-.9388636-.9113578-.9388636H6.630626c-.503329 0-.9113577.4203435-.9113577.9388636s.4080287.9388637.9113577.9388637z" fill="red" fill-rule="nonzero"/>
  </g>
</svg>
