<svg width="26" height="18" xmlns="http://www.w3.org/2000/svg">
  <g fill="none" fill-rule="evenodd">
    <g stroke="#0B0C1E" stroke-linecap="round" stroke-linejoin="round" stroke-width="1.17599989">
      <path d="M14.480875 9.949725c-.79657902-1.03033999-2.05086982-1.60606074-3.355875-1.54035H8.90833333c-2.00699434-.02723834-3.77266162 1.31378595-4.275 3.2468625-.09235201.3537814-.01485844.7301624.20987409 1.0193443.22473252.2891818.5713862.4585859.93883425.4587932h8.31250003c1.9675144 0 3.5625-1.5865909 3.5625-3.54375v-5.90625c0-1.30477272-1.0633238-2.3625-2.375-2.3625h-1.1875"/>
      <path d="M14.09375 13.134375h7.71875c.1926821 0 .373367-.0930626.4845-.2496375.1144878-.5656537.1411864-1.1454158.0791667-1.7191125-.3355504-.94408458-1.232974-1.57519121-2.239625-1.57500004H17.65625M20.03125 6.046875c0 .33556837-.1905959.64233585-.4923254.79240659-.3017295.15007074-.6627995.11768443-.9326746-.08365659-.5980389-.44616848-.95-1.14638587-.95-1.89 0-.74361413.3519611-1.44383152.95-1.89.2698751-.20134102.6309451-.23372733.9326746-.08365659s.4923254.45683822.4923254.79240659v2.3625zM12.90625 6.046875h-5.9375M11.71875 13.725c0 1.6309659-1.32915465 2.953125-2.96875 2.953125S5.78125 15.3559659 5.78125 13.725v-.590625h5.9375V13.725zM21.21875 13.725c0 1.6309659-1.3291546 2.953125-2.96875 2.953125s-2.96875-1.3221591-2.96875-2.953125v-.590625h5.9375V13.725z"/>
    </g>
    <path d="M14.6944853 13.725h-2.3889706c0 1.9587339-1.59340238 3.54375-3.5555147 3.54375S5.1944853 15.6837339 5.1944853 13.725v-.1002032c-.31789404-.1115756-.60161234-.3127374-.81343959-.5853129-.33757257-.4343824-.45420922-1.0008787-.31537819-1.5327101.57088652-2.19686048 2.57483042-3.71885588 4.84266581-3.68802379l2.18735116.0007376c1.49569255-.07531239 2.93390521.58482868 3.84825781 1.76750355.199023.25742752.1530407.62851524-.1027043.82884764-.255745.2003323-.6244073.1540476-.8234303-.10338-.67880547-.87800508-1.74917438-1.36930549-2.8928077-1.31245881l-2.2245773-.00005368C7.16218004 8.97635539 5.63478939 10.1364086 5.20083406 11.806335c-.04570792.1750976-.00735742.3613634.10453507.5053446.11335318.1458609.28954851.2319647.47667254.2320704h8.31250003c1.6354871 0 2.9603378-1.3084722 2.975602-2.92489553-.0004373-.00935455-.0006584-.01876604-.0006584-.02822951 0-.01038067.0002661-.02069878.0007917-.03094782V4.93398815a2.95108434 2.95108434 0 0 1-.0007917-.06836315c0-.02282208.0002645-.0456111.0007917-.06836315V3.684375c0-.97700468-.799076-1.77187501-1.7882353-1.77187501h-1.1875c-.32406123 0-.58676473-.26443182-.58676473-.59062499 0-.32619317.2627035-.59062499.58676473-.59062499h1.1875c1.2737993 0 2.3613049.8023453 2.779016 1.9293706.062672-.05566217.1279724-.10889385.1958012-.15949766.4467706-.33331438 1.0430976-.38680215 1.5419964-.13866562.5012786.24932016.8191594.76095496.8191594 1.32191767v2.3625c0 .56096271-.3178808 1.07259751-.8191594 1.32191767-.4988988.24813653-1.0952258.19464876-1.5419964-.13866562a2.96498784 2.96498784 0 0 1-.0130525-.00979381v1.77966663h1.8926246c1.2536839-.00023797 2.3728584.78681338 2.7922081 1.96667093l.0308489.1350616c.0685791.6343726.0390563 1.2754622-.0875341 1.9009115l-.0975198.2254381c-.2215399.3121267-.5802219.496918-.9619341.496918h-.0069853c0 1.9587339-1.5934024 3.54375-3.5555147 3.54375-1.9621123 0-3.5555147-1.5850161-3.5555147-3.54375zm1.1735294 0c0 1.3031979 1.0649069 2.3625 2.3819853 2.3625 1.3170784 0 2.3819853-1.0593021 2.3819853-2.3625h-4.7639706zm-4.7360294 0H6.3680147c0 1.3031979 1.06490692 2.3625 2.3819853 2.3625s2.3819853-1.0593021 2.3819853-2.3625zm7.1118211-8.80660388c.0161005.53638503.2770113 1.0383257.7118347 1.36272683.0929796.06936767.2187926.08065251.3233528.02864756.1021804-.05082131.1654914-.15272148.1654914-.26289551v-2.3625c0-.11017403-.063311-.2120742-.1654914-.26289551-.1045602-.05200495-.2303732-.04072011-.3233528.02864756-.4348234.32440113-.6957342.8263418-.7118347 1.36272683v.10554224zm-.0420026 5.26285378c-.1320578.9202283-.5681422 1.7423354-1.2033696 2.3625001h4.763553c.0639946-.4105573.0768633-.8275783.0381741-1.2416306-.2684092-.673645-.9264446-1.1210094-1.6636196-1.1208695h-1.9347379zM12.90625 5.45625001c.32406119 0 .5867647.26443182.5867647.59062499 0 .32619317-.26270351.59062499-.5867647.59062499h-5.9375c-.32406119 0-.5867647-.26443182-.5867647-.59062499 0-.32619317.26270351-.59062499.5867647-.59062499h5.9375z" fill="#0B0C1E"/>
  </g>
</svg>
