<svg width="26" height="18" xmlns="http://www.w3.org/2000/svg">
  <path d="M9.07351616 7.7960876L7.23143584 4.44199996H5.61842105c-.37671631 0-.68210522-.31084229-.68210522-.69428567 0-.38344339.30538891-.69428568.68210522-.69428568h1.99961322a.66908623.66908623 0 0 1 .02584674 0h2.67190846c.37671632 0 .68210523.31084229.68210523.69428568 0 .38344338-.30538891.69428567-.68210523.69428567H8.7943318l1.42345457 2.59184756 5.57446403-1.56948686-1.1667492-2.6978655c-.157346-.3622967-.1565373-.77645762.0022295-1.13810599.1600236-.3645113.4655334-.64136756.8389835-.75800451l2.6698947-.83571429c.3600748-.11270841.7417383.09303408.8524693.45953871.1107311.36650464-.0914019.75498357-.4514766.86769198l-2.6702991.83584072c.0035322-.00110318.0053459-.00241247.0059417-.00284751-.0012788.00292223-.0012854.00724201.0004207.01117251l2.8322653 6.54902455c.3210861-.0850196.6576725-.13023415 1.0045961-.13023415 2.2327735 0 4.0373684 1.87283592 4.0373684 4.17642852s-1.8045949 4.1764285-4.0373684 4.1764285c-2.2327734 0-4.0373684-1.8728359-4.0373684-4.1764285 0-1.4452347.7103055-2.7209196 1.7910189-3.47094204l-1.11649-2.58165154-6.05527438 1.70485872L9.221186 9.92977548c.68557405.74892002 1.10565606 1.76007832 1.10565606 2.87151022 0 2.3035926-1.80459492 4.1764285-4.03736838 4.1764285-2.23277345 0-4.03736838-1.8728359-4.03736838-4.1764285s1.80459493-4.17642852 4.03736838-4.17642852c.66613961 0 1.29416684.16670205 1.84752965.46181036l.93651283-1.29057994zm-1.76218732 2.4284169c-.31500171-.1360447-.66018711-.211076-1.02185516-.211076-1.47334789 0-2.67315793 1.245181-2.67315793 2.7878572 0 1.5426762 1.19981004 2.7878572 2.67315793 2.7878572 1.4733479 0 2.67315794-1.245181 2.67315794-2.7878572 0-.6521131-.2143921-1.2510672-.57321094-1.7252796l-1.551278 2.1377691c-.22381497.3084326-.65090032.3737888-.95392184.1459772-.30302152-.2278117-.36723112-.6625236-.14341615-.9709562l1.57052415-2.1642917zm10.71694096.4101871c-.6040792.5106279-.9909014 1.2906543-.9909014 2.1665941 0 1.5426762 1.19981 2.7878572 2.6731579 2.7878572s2.673158-1.245181 2.673158-2.7878572c0-1.5426762-1.1998101-2.7878572-2.673158-2.7878572-.1511591 0-.2994389.0131066-.4438392.0382964l1.0681357 2.4698419c.1517743.3509464-.0046955.7606791-.3494849.9151636-.3447894.1544845-.7473338-.0047794-.8991081-.3557257l-1.05796-2.4463131z" fill="#0B0C1E" fill-rule="evenodd"/>
</svg>
