<svg width="26" height="18" xmlns="http://www.w3.org/2000/svg">
  <path d="M11.3949998 3.09920845v5.00159153h7.5068863c-.3724975-.69374077-.8331842-1.3865483-1.3849587-2.03175104-1.5938784-1.86375921-3.61144-2.96630608-6.1219276-2.96984042zm-1.54.09194084c-3.10225709.38683242-5.51340658 1.99821495-6.84138841 4.90965069H9.8549998V3.19114929zm-8.6703387 5.374244c1.60730841-4.61914136 5.36052166-6.9445933 10.1982276-6.9445933 3.0255557 0 5.4571936 1.32690637 7.3242945 3.51015105.6441309.75319719 1.1745358 1.55717935 1.600421 2.36163683.1250813.23626693.2289348.44836335.3124011.63057156 2.7988966.24036143 5.0076483 2.38932833 5.0249945 5.03684057 0 1.2127437-1.0626545 2.1792-2.3533334 2.1792h-.4317626c-.3477511 1.1136766-1.4615642 1.92-2.7686818 1.92s-2.4209308-.8063234-2.7686818-1.92H8.60990383c-.34775106 1.1136766-1.46156424 1.92-2.76868181 1.92-1.30711756 0-2.42093074-.8063234-2.7686818-1.92h-.39878187c-.62409857-.0006206-1.22337997-.2338921-1.66082311-.6499052-.44588308-.4240396-.68456462-1.0011641-.65601732-1.5969134.08189112-1.6595137.35569064-3.14004302.7981235-4.44089148.008069-.02945779.01798421-.05819697.02961968-.08609663zm18.9065609 1.0138067H2.46660421c-.3110897 1.05986698-.50577898 2.25309391-.57136222 3.58212761-.00833108.1738643.06273814.3457075.20150334.4776747.14720515.1399936.35679687.2215777.57781003.2217977h.39798486c.34775106-1.1136767 1.46156424-1.92 2.7686818-1.92 1.30711757 0 2.42093075.8063233 2.76868181 1.92h8.71263637c.347751-1.1136767 1.4615642-1.92 2.7686818-1.92s2.4209307.8063233 2.7686818 1.92h.4317626c.4582228 0 .8133334-.3229637.8133486-.6961468-.0129576-1.9760603-1.7976328-3.58771477-4.0129743-3.58545363zm0 6.20160001c.7497064 0 1.3411111-.537867 1.3411111-1.1808 0-.642933-.5914047-1.1808-1.3411111-1.1808s-1.3411111.537867-1.3411111 1.1808c0 .642933.5914047 1.1808 1.3411111 1.1808zm-14.24999998 0c.74970643 0 1.34111111-.537867 1.34111111-1.1808 0-.642933-.59140468-1.1808-1.34111111-1.1808-.74970642 0-1.3411111.537867-1.3411111 1.1808 0 .642933.59140468 1.1808 1.3411111 1.1808z" fill="#0B0C1E" fill-rule="evenodd"/>
</svg>
